<svg xmlns="http://www.w3.org/2000/svg" viewBox="0 0 56 56" width="56" height="56">
  <defs>
    <linearGradient id="head" x1="0" y1="0" x2="0" y2="1">
      <stop offset="0%" stop-color="#A8E6CF"/>
      <stop offset="100%" stop-color="#6BC5A0"/>
    </linearGradient>
  </defs>
  <!-- antenna -->
  <circle cx="28" cy="6" r="4" fill="#FF8C42"/>
  <rect x="26" y="9" width="4" height="5" rx="1" fill="#7B68AE"/>
  <!-- head -->
  <rect x="8" y="13" width="40" height="34" rx="10" fill="url(#head)"/>
  <!-- eyes -->
  <circle cx="20" cy="28" r="6" fill="#fff"/>
  <circle cx="36" cy="28" r="6" fill="#fff"/>
  <circle cx="20" cy="28" r="3.5" fill="#2D9CDB"/>
  <circle cx="36" cy="28" r="3.5" fill="#2D9CDB"/>
  <circle cx="19" cy="27" r="1.2" fill="#fff"/>
  <circle cx="35" cy="27" r="1.2" fill="#fff"/>
  <!-- nose -->
  <polygon points="28,32 25,38 31,38" fill="#E85D5D"/>
  <!-- mouth -->
  <rect x="20" y="41" width="16" height="4" rx="2" fill="#fff"/>
  <rect x="22" y="41" width="2.5" height="4" rx="0.5" fill="#6BC5A0"/>
  <rect x="26.5" y="41" width="2.5" height="4" rx="0.5" fill="#6BC5A0"/>
  <rect x="31" y="41" width="2.5" height="4" rx="0.5" fill="#6BC5A0"/>
</svg>
